<?xml version="1.0" standalone="no"?>
<!DOCTYPE svg PUBLIC "-//W3C//DTD SVG 20010904//EN"
 "http://www.w3.org/TR/2001/REC-SVG-20010904/DTD/svg10.dtd">
<svg version="1.0" xmlns="http://www.w3.org/2000/svg"
 width="16" height="16" viewBox="0 0 150.000000 150.000000"
 preserveAspectRatio="xMidYMid meet">

<g transform="translate(0.000000,150.000000) scale(0.100000,-0.100000)"
fill="#000000" stroke="none">
<path d="M476 1432 c-3 -5 -8 -27 -12 -49 -5 -35 -10 -42 -35 -47 -24 -5 -35
0 -62 31 l-33 36 -42 -26 -41 -27 16 -45 c15 -44 14 -47 -5 -65 -18 -17 -24
-18 -66 -5 l-46 14 -27 -41 -27 -40 37 -34 c31 -29 36 -38 31 -63 -6 -26 -11
-30 -55 -36 l-49 -7 0 -53 0 -53 46 -7 c36 -5 47 -11 55 -32 9 -23 5 -31 -27
-64 -32 -33 -35 -39 -24 -60 28 -55 37 -59 87 -42 43 15 46 15 65 -5 21 -21
21 -27 -7 -94 -5 -12 4 -24 36 -44 l43 -27 32 38 c28 32 37 36 62 30 25 -5 30
-12 38 -53 l9 -47 50 0 50 0 9 47 c8 41 13 48 39 54 25 5 33 1 59 -30 l29 -36
39 20 c51 26 53 31 34 80 -16 40 -16 42 4 62 19 20 22 20 66 5 l46 -16 27 40
26 40 -37 38 c-33 33 -36 41 -27 64 10 25 22 31 76 39 17 3 20 11 20 53 l0 49
-44 11 c-37 9 -46 16 -52 40 -7 25 -4 32 28 60 l36 31 -23 42 c-27 47 -27 48
-77 27 -35 -15 -38 -15 -60 8 -23 22 -23 25 -8 60 21 50 20 50 -27 77 l-42 23
-31 -36 c-27 -32 -35 -35 -60 -29 -23 7 -30 16 -39 53 -11 44 -11 44 -58 47
-25 2 -49 -1 -52 -6z m110 -374 l94 -92 28 27 c16 15 31 24 35 20 4 -3 7 -61
7 -129 0 -102 -3 -123 -16 -128 -22 -8 -239 -8 -247 1 -4 4 5 19 20 35 l26 28
-93 96 -93 96 69 69 c38 38 70 69 73 69 2 0 46 -41 97 -92z"/>
<path d="M990 751 c-21 -6 -25 -13 -25 -45 0 -51 -25 -65 -70 -40 -33 17 -35
17 -54 -1 -25 -22 -27 -42 -4 -67 13 -15 14 -23 5 -43 -11 -23 -16 -25 -47
-19 -31 5 -36 3 -45 -21 -16 -41 -12 -50 25 -68 47 -22 47 -52 0 -74 -37 -18
-41 -27 -25 -67 8 -22 16 -26 49 -26 48 0 59 -21 34 -67 -17 -32 -17 -33 7
-57 l23 -26 33 21 c27 16 37 18 54 9 17 -9 20 -17 14 -45 -5 -31 -3 -36 21
-45 41 -16 52 -12 65 20 18 43 62 43 80 0 13 -32 24 -36 65 -20 24 9 27 15 23
46 -6 48 17 61 66 37 35 -16 36 -16 61 7 l24 23 -21 29 c-17 24 -18 34 -10 53
10 21 16 23 46 18 32 -5 37 -3 46 21 16 43 12 56 -20 67 -24 9 -30 17 -30 39
0 22 6 30 31 39 29 10 31 14 25 42 -3 17 -6 36 -6 42 0 6 -16 7 -40 4 -33 -4
-42 -2 -51 15 -8 15 -7 25 5 43 21 32 20 48 -5 70 -19 18 -21 18 -52 2 -46
-25 -67 -14 -67 34 0 28 -5 41 -19 49 -35 18 -58 12 -71 -20 -10 -23 -19 -30
-40 -30 -21 0 -30 7 -40 30 -13 31 -18 33 -60 21z m130 -180 c0 -5 -7 -14 -15
-21 -8 -7 -15 -17 -15 -23 0 -7 30 -42 67 -79 l68 -68 -53 -52 -52 -53 -68 68
c-37 37 -72 67 -79 67 -6 0 -16 -7 -23 -15 -7 -8 -16 -15 -21 -15 -10 0 -12
183 -2 193 10 10 193 8 193 -2z"/>
</g>
</svg>
